<svg width="84" height="170" viewBox="124 0 400 950" fill="none" xmlns="http://www.w3.org/2000/svg" class="jsx-2180138831"><g filter="url(#iphone-filter-1)" class="jsx-2180138831"><g filter="url(#iphone-filter-2)" class="jsx-2180138831"><path fill-rule="evenodd" clip-rule="evenodd" d="M548 233C549.105 233 550 233.895 550 235V335C550 336.105 549.105 337 548 337C546.895 337 546 336.105 546 335V235C546 233.895 546.895 233 548 233Z" fill="white" class="jsx-2180138831"></path><path fill-rule="evenodd" clip-rule="evenodd" d="M102 293C103.105 293 104 293.895 104 295V357C104 358.105 103.105 359 102 359C100.895 359 100 358.105 100 357V295C100 293.895 100.895 293 102 293Z" fill="white" class="jsx-2180138831"></path><path fill-rule="evenodd" clip-rule="evenodd" d="M102 211C103.105 211 104 211.895 104 213V275C104 276.105 103.105 277 102 277C100.895 277 100 276.105 100 275V213C100 211.895 100.895 211 102 211Z" fill="white" class="jsx-2180138831"></path><path fill-rule="evenodd" clip-rule="evenodd" d="M102 147C103.105 147 104 147.895 104 149V180C104 181.105 103.105 182 102 182C100.895 182 100 181.105 100 180V149C100 147.895 100.895 147 102 147Z" fill="white" class="jsx-2180138831"></path><path fill-rule="evenodd" clip-rule="evenodd" d="M348 924C347.088 922.786 345.636 922 344 922H306C304.364 922 302.912 922.786 302 924H188.89C159.024 924 148.194 920.89 137.276 915.051C126.357 909.212 117.788 900.643 111.949 889.724C106.11 878.806 103 867.976 103 838.11V111.89C103 82.0243 106.11 71.1942 111.949 60.2757C117.788 49.3572 126.357 40.7882 137.276 34.9489C148.194 29.1097 159.024 26 188.89 26L461.11 26C490.976 26 501.806 29.1097 512.724 34.9489C523.643 40.7882 532.212 49.3572 538.051 60.2757C543.89 71.1942 547 82.0243 547 111.89V838.11C547 867.976 543.89 878.806 538.051 889.724C532.212 900.643 523.643 909.212 512.724 915.051C501.806 920.89 490.976 924 461.11 924H348Z" fill="#FCFCFC" class="jsx-2180138831"></path><path fill-rule="evenodd" clip-rule="evenodd" d="M348 924C347.088 922.786 345.636 922 344 922H306C304.364 922 302.912 922.786 302 924H188.89C159.024 924 148.194 920.89 137.276 915.051C126.357 909.212 117.788 900.643 111.949 889.724C106.11 878.806 103 867.976 103 838.11V111.89C103 82.0243 106.11 71.1942 111.949 60.2757C117.788 49.3572 126.357 40.7882 137.276 34.9489C148.194 29.1097 159.024 26 188.89 26L461.11 26C490.976 26 501.806 29.1097 512.724 34.9489C523.643 40.7882 532.212 49.3572 538.051 60.2757C543.89 71.1942 547 82.0243 547 111.89V838.11C547 867.976 543.89 878.806 538.051 889.724C532.212 900.643 523.643 909.212 512.724 915.051C501.806 920.89 490.976 924 461.11 924H348Z" fill="url(#iphone-gradient-1)" fill-opacity="0.06" class="jsx-2180138831"></path><rect x="539" y="832" width="8" height="6" fill="#F5F5F5" class="jsx-2180138831"></rect><rect x="103" y="832" width="8" height="6" fill="#F5F5F5" class="jsx-2180138831"></rect><rect x="539" y="112" width="8" height="6" fill="#F5F5F5" class="jsx-2180138831"></rect><rect x="103" y="112" width="8" height="6" fill="#F5F5F5" class="jsx-2180138831"></rect><path d="M186.917 33.5H463.083C489.789 33.5 499.394 36.2803 509.07 41.4549C518.76 46.6375 526.362 54.2398 531.545 63.9304C536.72 73.6061 539.5 83.2115 539.5 109.917V840.083C539.5 866.788 536.72 876.394 531.545 886.07C526.362 895.76 518.76 903.363 509.07 908.545C499.394 913.72 489.789 916.5 463.083 916.5H186.917C160.212 916.5 150.606 913.72 140.93 908.545C131.24 903.363 123.638 895.76 118.455 886.07C113.28 876.394 110.5 866.788 110.5 840.083V109.917C110.5 83.2115 113.28 73.6061 118.455 63.9304C123.638 54.2398 131.24 46.6375 140.93 41.4549C150.606 36.2803 160.212 33.5 186.917 33.5Z" fill="white" class="jsx-2180138831"></path><path d="M186.917 33.5H463.083C489.789 33.5 499.394 36.2803 509.07 41.4549C518.76 46.6375 526.362 54.2398 531.545 63.9304C536.72 73.6061 539.5 83.2115 539.5 109.917V840.083C539.5 866.788 536.72 876.394 531.545 886.07C526.362 895.76 518.76 903.363 509.07 908.545C499.394 913.72 489.789 916.5 463.083 916.5H186.917C160.212 916.5 150.606 913.72 140.93 908.545C131.24 903.363 123.638 895.76 118.455 886.07C113.28 876.394 110.5 866.788 110.5 840.083V109.917C110.5 83.2115 113.28 73.6061 118.455 63.9304C123.638 54.2398 131.24 46.6375 140.93 41.4549C150.606 36.2803 160.212 33.5 186.917 33.5Z" fill="url(#iphone-gradient-2)" fill-opacity="0.06" class="jsx-2180138831"></path><path d="M186.917 33.5H463.083C489.789 33.5 499.394 36.2803 509.07 41.4549C518.76 46.6375 526.362 54.2398 531.545 63.9304C536.72 73.6061 539.5 83.2115 539.5 109.917V840.083C539.5 866.788 536.72 876.394 531.545 886.07C526.362 895.76 518.76 903.363 509.07 908.545C499.394 913.72 489.789 916.5 463.083 916.5H186.917C160.212 916.5 150.606 913.72 140.93 908.545C131.24 903.363 123.638 895.76 118.455 886.07C113.28 876.394 110.5 866.788 110.5 840.083V109.917C110.5 83.2115 113.28 73.6061 118.455 63.9304C123.638 54.2398 131.24 46.6375 140.93 41.4549C150.606 36.2803 160.212 33.5 186.917 33.5Z" stroke="#F0F0F0" class="jsx-2180138831"></path><g filter="url(#iphone-filter-3)" class="jsx-2180138831"><path fill-rule="evenodd" clip-rule="evenodd" d="M301.5 59H348.5C350.433 59 352 60.567 352 62.5C352 64.433 350.433 66 348.5 66H301.5C299.567 66 298 64.433 298 62.5C298 60.567 299.567 59 301.5 59Z" fill="#F5F5F5" class="jsx-2180138831"></path></g><g filter="url(#iphon-filter-4)" class="jsx-2180138831"><path fill-rule="evenodd" clip-rule="evenodd" d="M372.5 69C376.09 69 379 66.0899 379 62.5C379 58.9101 376.09 56 372.5 56C368.91 56 366 58.9101 366 62.5C366 66.0899 368.91 69 372.5 69Z" fill="#F5F5F5" class="jsx-2180138831"></path></g><path fill-rule="evenodd" clip-rule="evenodd" d="M372.5 66C374.433 66 376 64.433 376 62.5C376 60.567 374.433 59 372.5 59C370.567 59 369 60.567 369 62.5C369 64.433 370.567 66 372.5 66Z" fill="#FFFAFA" class="jsx-2180138831"></path><mask id="iphone-mask-1" mask-type="alpha" maskUnits="userSpaceOnUse" x="130" y="53" width="390" height="844" class="jsx-2180138831"><path fill-rule="evenodd" clip-rule="evenodd" d="M209.442 53C212.578 53 215.186 55.4124 215.541 58.5281C216.083 63.2843 217.026 69.7557 218.339 72.2106C220.518 76.2846 223.715 79.482 227.789 81.6608C231.864 83.8397 236.235 85 245.399 85H404.601C413.765 85 418.137 83.8397 422.211 81.6608C426.285 79.482 429.482 76.2846 431.661 72.2106C432.974 69.7557 433.917 63.2843 434.459 58.5281C434.814 55.4124 437.422 53 440.558 53H467.44C485.716 53 492.344 54.9029 499.025 58.4762C505.707 62.0495 510.95 67.2932 514.524 73.9747C518.097 80.6561 520 87.2835 520 105.56V844.44C520 862.716 518.097 869.344 514.524 876.025C510.95 882.707 505.707 887.951 499.025 891.524C492.344 895.097 485.716 897 467.44 897H182.56C164.284 897 157.656 895.097 150.975 891.524C144.293 887.951 139.05 882.707 135.476 876.025C131.903 869.344 130 862.716 130 844.44V105.56C130 87.2835 131.903 80.6561 135.476 73.9747C139.05 67.2932 144.293 62.0495 150.975 58.4762C157.656 54.9029 164.284 53 182.56 53H209.442Z" fill="white" class="jsx-2180138831"></path></mask><g mask="url(#iphone-mask-1)" class="jsx-2180138831"><path fill-rule="evenodd" clip-rule="evenodd" d="M209.442 53C212.578 53 215.186 55.4124 215.541 58.5281C216.083 63.2843 217.026 69.7557 218.339 72.2106C220.518 76.2846 223.715 79.482 227.789 81.6608C231.864 83.8397 236.235 85 245.399 85H404.601C413.765 85 418.137 83.8397 422.211 81.6608C426.285 79.482 429.482 76.2846 431.661 72.2106C432.974 69.7557 433.917 63.2843 434.459 58.5281C434.814 55.4124 437.422 53 440.558 53H467.44C485.716 53 492.344 54.9029 499.025 58.4762C505.707 62.0495 510.95 67.2932 514.524 73.9747C518.097 80.6561 520 87.2835 520 105.56V844.44C520 862.716 518.097 869.344 514.524 876.025C510.95 882.707 505.707 887.951 499.025 891.524C492.344 895.097 485.716 897 467.44 897H182.56C164.284 897 157.656 895.097 150.975 891.524C144.293 887.951 139.05 882.707 135.476 876.025C131.903 869.344 130 862.716 130 844.44V105.56C130 87.2835 131.903 80.6561 135.476 73.9747C139.05 67.2932 144.293 62.0495 150.975 58.4762C157.656 54.9029 164.284 53 182.56 53H209.442Z" fill="#F8F8F8" class="jsx-2180138831"></path><path fill-rule="evenodd" clip-rule="evenodd" d="M209.442 53C212.578 53 215.186 55.4124 215.541 58.5281C216.083 63.2843 217.026 69.7557 218.339 72.2106C220.518 76.2846 223.715 79.482 227.789 81.6608C231.864 83.8397 236.235 85 245.399 85H404.601C413.765 85 418.137 83.8397 422.211 81.6608C426.285 79.482 429.482 76.2846 431.661 72.2106C432.974 69.7557 433.917 63.2843 434.459 58.5281C434.814 55.4124 437.422 53 440.558 53H467.44C485.716 53 492.344 54.9029 499.025 58.4762C505.707 62.0495 510.95 67.2932 514.524 73.9747C518.097 80.6561 520 87.2835 520 105.56V844.44C520 862.716 518.097 869.344 514.524 876.025C510.95 882.707 505.707 887.951 499.025 891.524C492.344 895.097 485.716 897 467.44 897H182.56C164.284 897 157.656 895.097 150.975 891.524C144.293 887.951 139.05 882.707 135.476 876.025C131.903 869.344 130 862.716 130 844.44V105.56C130 87.2835 131.903 80.6561 135.476 73.9747C139.05 67.2932 144.293 62.0495 150.975 58.4762C157.656 54.9029 164.284 53 182.56 53H209.442Z" fill="url(#iphone-pattern-1)" class="jsx-2180138831"></path><rect x="130" y="125" width="390" height="688" fill="#F6F6F6" class="jsx-2180138831"></rect><rect x="154.5" y="165.5" width="157.894" height="194.398" rx="4.5" fill="white" stroke="#CBCBCB" class="jsx-2180138831"></rect><path d="M155.638 170.744C155.638 168.535 157.429 166.744 159.638 166.744H307.256C309.465 166.744 311.256 168.535 311.256 170.744V297.591H155.638V170.744Z" fill="#EAEAEA" class="jsx-2180138831"></path><rect x="168.743" y="313.293" width="95.0087" height="12.2124" rx="2" fill="#CFCFCF" class="jsx-2180138831"></rect><rect x="168.743" y="332.483" width="55.6947" height="12.2124" rx="2" fill="#CFCFCF" class="jsx-2180138831"></rect><rect x="337.606" y="165.5" width="157.894" height="194.398" rx="4.5" fill="white" stroke="#CBCBCB" class="jsx-2180138831"></rect><path d="M338.745 170.744C338.745 168.535 340.535 166.744 342.745 166.744H490.362C492.571 166.744 494.362 168.535 494.362 170.744V297.591H338.745V170.744Z" fill="#EAEAEA" class="jsx-2180138831"></path><rect x="351.849" y="313.293" width="95.0087" height="12.2124" rx="2" fill="#CFCFCF" class="jsx-2180138831"></rect><rect x="351.849" y="332.483" width="55.6947" height="12.2124" rx="2" fill="#CFCFCF" class="jsx-2180138831"></rect><rect x="154.5" y="385.323" width="157.894" height="194.398" rx="4.5" fill="white" stroke="#CBCBCB" class="jsx-2180138831"></rect><path d="M155.638 390.567C155.638 388.358 157.429 386.567 159.638 386.567H307.256C309.465 386.567 311.256 388.358 311.256 390.567V517.414H155.638V390.567Z" fill="#EAEAEA" class="jsx-2180138831"></path><rect x="168.743" y="533.115" width="95.0087" height="12.2124" rx="2" fill="#CFCFCF" class="jsx-2180138831"></rect><rect x="168.743" y="552.306" width="55.6947" height="12.2124" rx="2" fill="#CFCFCF" class="jsx-2180138831"></rect><rect x="337.606" y="385.323" width="157.894" height="194.398" rx="4.5" fill="white" stroke="#CBCBCB" class="jsx-2180138831"></rect><path d="M338.745 390.567C338.745 388.358 340.535 386.567 342.745 386.567H490.362C492.571 386.567 494.362 388.358 494.362 390.567V517.414H338.745V390.567Z" fill="#EAEAEA" class="jsx-2180138831"></path><rect x="351.849" y="533.116" width="95.0087" height="12.2124" rx="2" fill="#CFCFCF" class="jsx-2180138831"></rect><rect x="351.849" y="552.307" width="55.6947" height="12.2124" rx="2" fill="#CFCFCF" class="jsx-2180138831"></rect><rect x="154.5" y="604.5" width="157.894" height="194.398" rx="4.5" fill="white" stroke="#CBCBCB" class="jsx-2180138831"></rect><path d="M155.638 609.744C155.638 607.535 157.429 605.744 159.638 605.744H307.256C309.465 605.744 311.256 607.535 311.256 609.744V736.591H155.638V609.744Z" fill="#EAEAEA" class="jsx-2180138831"></path><rect x="168.743" y="752.293" width="95.0087" height="12.2124" rx="2" fill="#CFCFCF" class="jsx-2180138831"></rect><rect x="168.743" y="771.483" width="55.6947" height="12.2124" rx="2" fill="#CFCFCF" class="jsx-2180138831"></rect><rect x="337.606" y="604.5" width="157.894" height="194.398" rx="4.5" fill="white" stroke="#CBCBCB" class="jsx-2180138831"></rect><path d="M338.745 609.744C338.745 607.535 340.535 605.744 342.745 605.744H490.362C492.571 605.744 494.362 607.535 494.362 609.744V736.591H338.745V609.744Z" fill="#EAEAEA" class="jsx-2180138831"></path><rect x="351.849" y="752.293" width="95.0087" height="12.2124" rx="2" fill="#CFCFCF" class="jsx-2180138831"></rect><rect x="351.849" y="771.483" width="55.6947" height="12.2124" rx="2" fill="#CFCFCF" class="jsx-2180138831"></rect><rect x="130" y="93" width="390" height="48" fill="#007AFF" class="jsx-2180138831"></rect><rect x="142" y="103" width="84" height="28" rx="2" fill="#EAEAEA" class="jsx-2180138831"></rect><circle cx="494" cy="117" r="14" fill="#EAEAEA" class="jsx-2180138831"></circle></g><path d="M216.038 58.4714C215.655 55.1129 212.842 52.5 209.442 52.5H182.56C164.243 52.5 157.522 54.4074 150.739 58.0353C143.97 61.6552 138.655 66.9702 135.035 73.7389C131.407 80.5224 129.5 87.243 129.5 105.56V844.44C129.5 862.757 131.407 869.478 135.035 876.261C138.655 883.03 143.97 888.345 150.739 891.965C157.522 895.593 164.243 897.5 182.56 897.5H467.44C485.757 897.5 492.478 895.593 499.261 891.965C506.03 888.345 511.345 883.03 514.965 876.261C518.593 869.478 520.5 862.757 520.5 844.44V105.56C520.5 87.243 518.593 80.5224 514.965 73.7389C511.345 66.9702 506.03 61.6552 499.261 58.0353C492.478 54.4074 485.757 52.5 467.44 52.5H440.558C437.158 52.5 434.345 55.1129 433.962 58.4714C433.692 60.8443 433.322 63.6382 432.857 66.1411C432.389 68.6663 431.835 70.8247 431.22 71.9748C429.088 75.9617 425.962 79.0877 421.975 81.2199C417.997 83.3471 413.716 84.5 404.601 84.5H245.399C236.284 84.5 232.003 83.3471 228.025 81.2199C224.038 79.0877 220.912 75.9617 218.78 71.9748C218.165 70.8247 217.611 68.6663 217.143 66.1411C216.678 63.6382 216.308 60.8443 216.038 58.4714Z" stroke="#DEDEDE" class="jsx-2180138831"></path></g></g><defs class="jsx-2180138831"><filter id="iphone-filter-1" x="0" y="26" width="550" height="998" filterUnits="userSpaceOnUse" color-interpolation-filters="sRGB" class="jsx-2180138831"><feFlood flood-opacity="0" result="BackgroundImageFix" class="jsx-2180138831"></feFlood><feColorMatrix in="SourceAlpha" type="matrix" values="0 0 0 0 0 0 0 0 0 0 0 0 0 0 0 0 0 0 127 0" class="jsx-2180138831"></feColorMatrix><feOffset dx="-51" dy="51" class="jsx-2180138831"></feOffset><feGaussianBlur stdDeviation="24.5" class="jsx-2180138831"></feGaussianBlur><feColorMatrix type="matrix" values="0 0 0 0 0 0 0 0 0 0 0 0 0 0 0 0 0 0 0.060745 0" class="jsx-2180138831"></feColorMatrix><feBlend mode="normal" in2="BackgroundImageFix" result="effect1_dropShadow" class="jsx-2180138831"></feBlend><feBlend mode="normal" in="SourceGraphic" in2="effect1_dropShadow" result="shape" class="jsx-2180138831"></feBlend></filter><filter id="iphone-filter-2" x="72" y="0" width="506" height="954" filterUnits="userSpaceOnUse" color-interpolation-filters="sRGB" class="jsx-2180138831"><feFlood flood-opacity="0" result="BackgroundImageFix" class="jsx-2180138831"></feFlood><feColorMatrix in="SourceAlpha" type="matrix" values="0 0 0 0 0 0 0 0 0 0 0 0 0 0 0 0 0 0 127 0" class="jsx-2180138831"></feColorMatrix><feOffset dy="2" class="jsx-2180138831"></feOffset><feGaussianBlur stdDeviation="14" class="jsx-2180138831"></feGaussianBlur><feColorMatrix type="matrix" values="0 0 0 0 0 0 0 0 0 0 0 0 0 0 0 0 0 0 0.0581975 0" class="jsx-2180138831"></feColorMatrix><feBlend mode="normal" in2="BackgroundImageFix" result="effect1_dropShadow" class="jsx-2180138831"></feBlend><feBlend mode="normal" in="SourceGraphic" in2="effect1_dropShadow" result="shape" class="jsx-2180138831"></feBlend></filter><filter id="iphone-filter-3" x="298" y="59" width="54" height="8" filterUnits="userSpaceOnUse" color-interpolation-filters="sRGB" class="jsx-2180138831"><feFlood flood-opacity="0" result="BackgroundImageFix" class="jsx-2180138831"></feFlood><feBlend mode="normal" in="SourceGraphic" in2="BackgroundImageFix" result="shape" class="jsx-2180138831"></feBlend><feColorMatrix in="SourceAlpha" type="matrix" values="0 0 0 0 0 0 0 0 0 0 0 0 0 0 0 0 0 0 127 0" result="hardAlpha" class="jsx-2180138831"></feColorMatrix><feOffset dy="1" class="jsx-2180138831"></feOffset><feGaussianBlur stdDeviation="1.5" class="jsx-2180138831"></feGaussianBlur><feComposite in2="hardAlpha" operator="arithmetic" k2="-1" k3="1" class="jsx-2180138831"></feComposite><feColorMatrix type="matrix" values="0 0 0 0 0 0 0 0 0 0 0 0 0 0 0 0 0 0 0.0526778 0" class="jsx-2180138831"></feColorMatrix><feBlend mode="normal" in2="shape" result="effect1_innerShadow" class="jsx-2180138831"></feBlend></filter><filter id="iphon-filter-4" x="366" y="56" width="13" height="14" filterUnits="userSpaceOnUse" color-interpolation-filters="sRGB" class="jsx-2180138831"><feFlood flood-opacity="0" result="BackgroundImageFix" class="jsx-2180138831"></feFlood><feBlend mode="normal" in="SourceGraphic" in2="BackgroundImageFix" result="shape" class="jsx-2180138831"></feBlend><feColorMatrix in="SourceAlpha" type="matrix" values="0 0 0 0 0 0 0 0 0 0 0 0 0 0 0 0 0 0 127 0" result="hardAlpha" class="jsx-2180138831"></feColorMatrix><feOffset dy="1" class="jsx-2180138831"></feOffset><feGaussianBlur stdDeviation="1.5" class="jsx-2180138831"></feGaussianBlur><feComposite in2="hardAlpha" operator="arithmetic" k2="-1" k3="1" class="jsx-2180138831"></feComposite><feColorMatrix type="matrix" values="0 0 0 0 0 0 0 0 0 0 0 0 0 0 0 0 0 0 0.0526778 0" class="jsx-2180138831"></feColorMatrix><feBlend mode="normal" in2="shape" result="effect1_innerShadow" class="jsx-2180138831"></feBlend></filter><pattern id="iphone-pattern-1" patternContentUnits="objectBoundingBox" width="1" height="1" class="jsx-2180138831"><use href="#image0" transform="translate(0 -0.00028436) scale(0.00133333 0.000616114)" class="jsx-2180138831"></use></pattern><linearGradient id="iphone-gradient-1" x1="547" y1="26" x2="103" y2="26" gradientUnits="userSpaceOnUse" class="jsx-2180138831"><stop stop-color="white" stop-opacity="0.5" class="jsx-2180138831"></stop><stop offset="0.966885" stop-color="white" stop-opacity="0.5" class="jsx-2180138831"></stop><stop offset="1" stop-opacity="0.5" class="jsx-2180138831"></stop></linearGradient><linearGradient id="iphone-gradient-2" x1="540" y1="33" x2="110" y2="33" gradientUnits="userSpaceOnUse" class="jsx-2180138831"><stop stop-color="white" stop-opacity="0.5" class="jsx-2180138831"></stop><stop offset="0.952126" stop-color="white" stop-opacity="0.5" class="jsx-2180138831"></stop><stop offset="1" stop-opacity="0.5" class="jsx-2180138831"></stop></linearGradient><image id="image0" width="750" height="1624" href="" class="jsx-2180138831"></image></defs></svg>