<svg width="632" height="204" viewBox="0 0 632 204" fill="none" xmlns="http://www.w3.org/2000/svg"><g filter="url(#offline-filter-1)"><g filter="url(#offline-filter-2)"><path fill-rule="evenodd" clip-rule="evenodd" d="M121.742 153.404C122.704 153.404 123.484 154.184 123.484 155.147V182.151C123.484 183.113 122.704 183.893 121.742 183.893C120.78 183.893 120 183.113 120 182.151V155.147C120 154.184 120.78 153.404 121.742 153.404Z" fill="white"></path><path fill-rule="evenodd" clip-rule="evenodd" d="M336.036 830.258C335.241 829.2 333.976 828.516 332.551 828.516H299.449C298.024 828.516 296.759 829.2 295.964 830.258H197.433C171.417 830.258 161.982 827.549 152.471 822.462C142.96 817.376 135.495 809.911 130.409 800.4C125.322 790.889 122.613 781.454 122.613 755.438V122.82C122.613 96.8034 125.322 87.3692 130.409 77.8579C135.495 68.3467 142.96 60.8822 152.471 55.7955C161.982 50.7089 171.417 48 197.433 48L434.567 48C460.583 48 470.017 50.7089 479.529 55.7955C489.04 60.8822 496.504 68.3467 501.591 77.8579C506.678 87.3692 509.387 96.8034 509.387 122.82V755.438C509.387 781.454 506.678 790.889 501.591 800.4C496.504 809.911 489.04 817.376 479.529 822.462C470.017 827.549 460.583 830.258 434.567 830.258H336.036V830.258Z" fill="#FCFCFC"></path><path fill-rule="evenodd" clip-rule="evenodd" d="M336.036 830.258C335.241 829.2 333.976 828.516 332.551 828.516H299.449C298.024 828.516 296.759 829.2 295.964 830.258H197.433C171.417 830.258 161.982 827.549 152.471 822.462C142.96 817.376 135.495 809.911 130.409 800.4C125.322 790.889 122.613 781.454 122.613 755.438V122.82C122.613 96.8034 125.322 87.3692 130.409 77.8579C135.495 68.3467 142.96 60.8822 152.471 55.7955C161.982 50.7089 171.417 48 197.433 48L434.567 48C460.583 48 470.017 50.7089 479.529 55.7955C489.04 60.8822 496.504 68.3467 501.591 77.8579C506.678 87.3692 509.387 96.8034 509.387 122.82V755.438C509.387 781.454 506.678 790.889 501.591 800.4C496.504 809.911 489.04 817.376 479.529 822.462C470.017 827.549 460.583 830.258 434.567 830.258H336.036V830.258Z" fill="url(#offline-gradient-1)" fill-opacity="0.06"></path><path d="M502.418 122.916H509.387V128.142H502.418V122.916Z" fill="#F5F5F5"></path><path d="M122.613 122.916H129.582V128.142H122.613V122.916Z" fill="#F5F5F5"></path><path fill-rule="evenodd" clip-rule="evenodd" d="M195.714 54.0978L436.286 54.0978C459.584 54.0978 468.033 56.5236 476.55 61.0788C485.068 65.6341 491.753 72.3187 496.308 80.8362C500.863 89.3537 503.289 97.8023 503.289 121.101V757.157C503.289 780.455 500.863 788.904 496.308 797.422C491.753 805.939 485.068 812.624 476.55 817.179C468.033 821.734 459.584 824.16 436.286 824.16H195.714C172.416 824.16 163.967 821.734 155.449 817.179C146.932 812.624 140.247 805.939 135.692 797.422C131.137 788.904 128.711 780.455 128.711 757.157V121.101C128.711 97.8023 131.137 89.3537 135.692 80.8362C140.247 72.3187 146.932 65.6341 155.449 61.0788C163.967 56.5236 172.416 54.0978 195.714 54.0978Z" fill="white"></path><path fill-rule="evenodd" clip-rule="evenodd" d="M195.714 54.0978L436.286 54.0978C459.584 54.0978 468.033 56.5236 476.55 61.0788C485.068 65.6341 491.753 72.3187 496.308 80.8362C500.863 89.3537 503.289 97.8023 503.289 121.101V757.157C503.289 780.455 500.863 788.904 496.308 797.422C491.753 805.939 485.068 812.624 476.55 817.179C468.033 821.734 459.584 824.16 436.286 824.16H195.714C172.416 824.16 163.967 821.734 155.449 817.179C146.932 812.624 140.247 805.939 135.692 797.422C131.137 788.904 128.711 780.455 128.711 757.157V121.101C128.711 97.8023 131.137 89.3537 135.692 80.8362C140.247 72.3187 146.932 65.6341 155.449 61.0788C163.967 56.5236 172.416 54.0978 195.714 54.0978Z" fill="url(#offline-gradient-2)" fill-opacity="0.06"></path><path fill-rule="evenodd" clip-rule="evenodd" d="M436.286 54.9689H195.714C172.486 54.9689 164.2 57.3869 155.86 61.847C147.495 66.321 140.934 72.8813 136.46 81.247C132 89.5867 129.582 97.8729 129.582 121.101V757.157C129.582 780.385 132 788.671 136.46 797.011C140.934 805.376 147.495 811.937 155.86 816.411C164.2 820.871 172.486 823.289 195.714 823.289H436.286C459.514 823.289 467.8 820.871 476.14 816.411C484.505 811.937 491.066 805.376 495.54 797.011C500 788.671 502.418 780.385 502.418 757.157V121.101C502.418 97.8729 500 89.5867 495.54 81.247C491.066 72.8813 484.505 66.321 476.14 61.847C467.8 57.3869 459.514 54.9689 436.286 54.9689ZM436.286 54.0978H195.714C172.416 54.0978 163.967 56.5236 155.449 61.0788C146.932 65.6341 140.247 72.3187 135.692 80.8362C131.137 89.3537 128.711 97.8023 128.711 121.101V757.157C128.711 780.455 131.137 788.904 135.692 797.422C140.247 805.939 146.932 812.624 155.449 817.179C163.967 821.734 172.416 824.16 195.714 824.16H436.286C459.584 824.16 468.033 821.734 476.55 817.179C485.068 812.624 491.753 805.939 496.308 797.422C500.863 788.904 503.289 780.455 503.289 757.157V121.101C503.289 97.8023 500.863 89.3537 496.308 80.8362C491.753 72.3187 485.068 65.6341 476.55 61.0788C468.033 56.5236 459.584 54.0978 436.286 54.0978Z" fill="#F0F0F0"></path><g filter="url(#offline-filter-3)"><path fill-rule="evenodd" clip-rule="evenodd" d="M295.529 76.7466H336.471C338.155 76.7466 339.52 78.1117 339.52 79.7955C339.52 81.4794 338.155 82.8444 336.471 82.8444H295.529C293.845 82.8444 292.48 81.4794 292.48 79.7955C292.48 78.1117 293.845 76.7466 295.529 76.7466Z" fill="#F5F5F5"></path></g><g filter="url(#offline-filter-4)"><path fill-rule="evenodd" clip-rule="evenodd" d="M357.378 85.4578C360.505 85.4578 363.04 82.9227 363.04 79.7956C363.04 76.6684 360.505 74.1334 357.378 74.1334C354.251 74.1334 351.716 76.6684 351.716 79.7956C351.716 82.9227 354.251 85.4578 357.378 85.4578Z" fill="#F5F5F5"></path></g><path fill-rule="evenodd" clip-rule="evenodd" d="M357.378 82.8444C359.062 82.8444 360.427 81.4794 360.427 79.7955C360.427 78.1117 359.062 76.7466 357.378 76.7466C355.694 76.7466 354.329 78.1117 354.329 79.7955C354.329 81.4794 355.694 82.8444 357.378 82.8444Z" fill="#FFFAFA"></path><mask id="mask0" mask-type="alpha" maskUnits="userSpaceOnUse" x="146" y="71" width="340" height="736"><path fill-rule="evenodd" clip-rule="evenodd" d="M215.336 71.52C218.068 71.52 220.34 73.6215 220.649 76.3356C221.121 80.4788 221.943 86.1161 223.087 88.2546C224.985 91.8035 227.77 94.5888 231.319 96.4868C234.868 98.3848 238.675 99.3956 246.658 99.3956H385.341C393.325 99.3956 397.132 98.3848 400.681 96.4868C404.23 94.5888 407.015 91.8035 408.913 88.2546C410.057 86.1161 410.879 80.4788 411.351 76.3356C411.66 73.6215 413.932 71.52 416.664 71.52H440.081C456.002 71.52 461.775 73.1777 467.595 76.2904C473.416 79.4032 477.983 83.971 481.096 89.7913C484.209 95.6116 485.867 101.385 485.867 117.305V760.953C485.867 776.873 484.209 782.646 481.096 788.467C477.983 794.287 473.416 798.855 467.595 801.967C461.775 805.08 456.002 806.738 440.081 806.738H191.919C175.998 806.738 170.225 805.08 164.405 801.967C158.584 798.855 154.016 794.287 150.904 788.467C147.791 782.646 146.133 776.873 146.133 760.953V117.305C146.133 101.385 147.791 95.6116 150.904 89.7913C154.016 83.971 158.584 79.4032 164.405 76.2904C170.225 73.1777 175.998 71.52 191.919 71.52H215.336Z" fill="white"></path></mask><g mask="url(#mask0)"><path fill-rule="evenodd" clip-rule="evenodd" d="M215.203 71.52C217.935 71.52 220.206 73.6215 220.516 76.3356C220.988 80.4788 221.81 86.1161 222.953 88.2546C224.851 91.8035 227.636 94.5888 231.185 96.4868C234.734 98.3848 238.542 99.3956 246.525 99.3956H385.208C393.191 99.3956 396.999 98.3848 400.548 96.4868C404.097 94.5888 406.882 91.8035 408.78 88.2546C409.924 86.1161 410.745 80.4788 411.218 76.3356C411.527 73.6215 413.799 71.52 416.53 71.52H439.948C455.869 71.52 461.642 73.1777 467.462 76.2904C473.282 79.4032 477.85 83.971 480.963 89.7913C484.076 95.6116 485.733 101.385 485.733 117.305V760.953C485.733 776.873 484.076 782.646 480.963 788.467C477.85 794.287 473.282 798.855 467.462 801.967C461.642 805.08 455.869 806.738 439.948 806.738H191.785C175.865 806.738 170.092 805.08 164.271 801.967C158.451 798.855 153.883 794.287 150.77 788.467C147.658 782.646 146 776.873 146 760.953V117.305C146 101.385 147.658 95.6116 150.77 89.7913C153.883 83.971 158.451 79.4032 164.271 76.2904C170.092 73.1777 175.865 71.52 191.785 71.52H215.203Z" fill="#F7F7F7"></path></g><path fill-rule="evenodd" clip-rule="evenodd" d="M222.473 82.8878C222.882 85.0928 223.355 86.9093 223.855 87.8437C225.672 91.2409 228.332 93.9018 231.73 95.7186C235.11 97.5265 238.762 98.5244 246.658 98.5244H385.342C393.238 98.5244 396.89 97.5265 400.27 95.7186C403.668 93.9018 406.328 91.2409 408.145 87.8437C408.645 86.9093 409.118 85.0928 409.527 82.8878C409.93 80.7218 410.25 78.2993 410.486 76.2369C410.843 73.0995 413.472 70.6489 416.664 70.6489H440.081C456.073 70.6489 462.008 72.3143 468.006 75.5222C473.978 78.7161 478.671 83.4083 481.864 89.3804C485.072 95.3786 486.738 101.314 486.738 117.305V760.952C486.738 776.944 485.072 782.879 481.864 788.877C478.671 794.849 473.978 799.542 468.006 802.735C462.008 805.943 456.073 807.609 440.081 807.609H191.919C175.927 807.609 169.992 805.943 163.994 802.735C158.022 799.542 153.329 794.849 150.136 788.877C146.928 782.879 145.262 776.944 145.262 760.952V117.305C145.262 101.314 146.928 95.3786 150.136 89.3804C153.329 83.4083 158.022 78.7161 163.994 75.5222C169.992 72.3143 175.927 70.6489 191.919 70.6489H215.336C218.528 70.6489 221.157 73.0995 221.514 76.2369C221.75 78.2993 222.07 80.7218 222.473 82.8878ZM220.649 76.3356C220.34 73.6215 218.068 71.52 215.336 71.52H191.919C175.998 71.52 170.225 73.1776 164.405 76.2904C158.584 79.4031 154.016 83.9709 150.904 89.7912C147.791 95.6115 146.133 101.385 146.133 117.305V760.952C146.133 776.873 147.791 782.646 150.904 788.466C154.016 794.287 158.584 798.855 164.405 801.967C170.225 805.08 175.998 806.738 191.919 806.738H440.081C456.002 806.738 461.775 805.08 467.595 801.967C473.416 798.855 477.984 794.287 481.096 788.466C484.209 782.646 485.867 776.873 485.867 760.952V117.305C485.867 101.385 484.209 95.6115 481.096 89.7912C477.984 83.9709 473.416 79.4031 467.595 76.2904C461.775 73.1776 456.002 71.52 440.081 71.52H416.664C413.932 71.52 411.66 73.6215 411.351 76.3355C410.879 80.4787 410.057 86.116 408.913 88.2545C407.015 91.8035 404.23 94.5887 400.681 96.4868C397.132 98.3848 393.325 99.3955 385.342 99.3955H246.658C238.675 99.3955 234.868 98.3848 231.319 96.4868C227.77 94.5887 224.985 91.8035 223.087 88.2545C221.943 86.1161 221.121 80.4787 220.649 76.3356Z" fill="#DEDEDE"></path></g></g><defs><filter id="offline-filter-1" x="0" y="0" width="632" height="1022.26" filterUnits="userSpaceOnUse" color-interpolation-filters="sRGB"><feFlood flood-opacity="0" result="BackgroundImageFix"></feFlood><feColorMatrix in="SourceAlpha" type="matrix" values="0 0 0 0 0 0 0 0 0 0 0 0 0 0 0 0 0 0 127 0"></feColorMatrix><feOffset dy="72"></feOffset><feGaussianBlur stdDeviation="60"></feGaussianBlur><feColorMatrix type="matrix" values="0 0 0 0 0 0 0 0 0 0 0 0 0 0 0 0 0 0 0.14 0"></feColorMatrix><feBlend mode="normal" in2="BackgroundImageFix" result="effect1_dropShadow"></feBlend><feBlend mode="normal" in="SourceGraphic" in2="effect1_dropShadow" result="shape"></feBlend></filter><filter id="offline-filter-2" x="92" y="22" width="448" height="838.258" filterUnits="userSpaceOnUse" color-interpolation-filters="sRGB"><feFlood flood-opacity="0" result="BackgroundImageFix"></feFlood><feColorMatrix in="SourceAlpha" type="matrix" values="0 0 0 0 0 0 0 0 0 0 0 0 0 0 0 0 0 0 127 0"></feColorMatrix><feOffset dy="2"></feOffset><feGaussianBlur stdDeviation="14"></feGaussianBlur><feColorMatrix type="matrix" values="0 0 0 0 0 0 0 0 0 0 0 0 0 0 0 0 0 0 0.0581975 0"></feColorMatrix><feBlend mode="normal" in2="BackgroundImageFix" result="effect1_dropShadow"></feBlend><feBlend mode="normal" in="SourceGraphic" in2="effect1_dropShadow" result="shape"></feBlend></filter><filter id="offline-filter-3" x="292.48" y="76.7466" width="47.04" height="7.09778" filterUnits="userSpaceOnUse" color-interpolation-filters="sRGB"><feFlood flood-opacity="0" result="BackgroundImageFix"></feFlood><feBlend mode="normal" in="SourceGraphic" in2="BackgroundImageFix" result="shape"></feBlend><feColorMatrix in="SourceAlpha" type="matrix" values="0 0 0 0 0 0 0 0 0 0 0 0 0 0 0 0 0 0 127 0" result="hardAlpha"></feColorMatrix><feOffset dy="1"></feOffset><feGaussianBlur stdDeviation="1.5"></feGaussianBlur><feComposite in2="hardAlpha" operator="arithmetic" k2="-1" k3="1"></feComposite><feColorMatrix type="matrix" values="0 0 0 0 0 0 0 0 0 0 0 0 0 0 0 0 0 0 0.0526778 0"></feColorMatrix><feBlend mode="normal" in2="shape" result="effect1_innerShadow"></feBlend></filter><filter id="offline-filter-4" x="351.716" y="74.1334" width="11.3244" height="12.3244" filterUnits="userSpaceOnUse" color-interpolation-filters="sRGB"><feFlood flood-opacity="0" result="BackgroundImageFix"></feFlood><feBlend mode="normal" in="SourceGraphic" in2="BackgroundImageFix" result="shape"></feBlend><feColorMatrix in="SourceAlpha" type="matrix" values="0 0 0 0 0 0 0 0 0 0 0 0 0 0 0 0 0 0 127 0" result="hardAlpha"></feColorMatrix><feOffset dy="1"></feOffset><feGaussianBlur stdDeviation="1.5"></feGaussianBlur><feComposite in2="hardAlpha" operator="arithmetic" k2="-1" k3="1"></feComposite><feColorMatrix type="matrix" values="0 0 0 0 0 0 0 0 0 0 0 0 0 0 0 0 0 0 0.0526778 0"></feColorMatrix><feBlend mode="normal" in2="shape" result="effect1_innerShadow"></feBlend></filter><linearGradient id="offline-gradient-1" x1="509.387" y1="48" x2="122.613" y2="48" gradientUnits="userSpaceOnUse"><stop stop-color="white" stop-opacity="0.5"></stop><stop offset="0.966885" stop-color="white" stop-opacity="0.5"></stop><stop offset="1" stop-opacity="0.5"></stop></linearGradient><linearGradient id="offline-gradient-2" x1="503.289" y1="54.0978" x2="128.711" y2="54.0978" gradientUnits="userSpaceOnUse"><stop stop-color="white" stop-opacity="0.5"></stop><stop offset="0.952126" stop-color="white" stop-opacity="0.5"></stop><stop offset="1" stop-opacity="0.5"></stop></linearGradient></defs></svg>