<svg width="32" height="32" viewBox="0 0 32 32" fill="none" xmlns="http://www.w3.org/2000/svg">
<path d="M28.8626 3.35002C28.8376 3.24377 28.7626 3.16252 28.6563 3.13752C25.2563 2.30627 17.4001 5.26877 13.1438 9.52502C12.3126 10.3563 11.6313 11.175 11.0751 11.9688C9.76259 11.85 8.45009 11.95 7.33134 12.4375C4.17509 13.825 3.25634 17.45 3.00009 19.0063C2.93759 19.375 3.24384 19.6938 3.61259 19.6563L8.68134 19.1C8.68759 19.5875 8.71884 19.975 8.75009 20.2438C8.77509 20.5063 8.89384 20.75 9.08134 20.9375L11.0438 22.9C11.2313 23.0875 11.4751 23.2063 11.7376 23.2313C12.0063 23.2625 12.3938 23.2938 12.8751 23.3L12.3188 28.3625C12.2813 28.7313 12.6001 29.0375 12.9688 28.975C14.5251 28.725 18.1563 27.8063 19.5376 24.65C20.0251 23.5313 20.1251 22.225 20.0126 20.9188C20.8063 20.3625 21.6313 19.6813 22.4626 18.85C26.7376 14.6 29.6813 6.91877 28.8626 3.35002ZM18.6626 13.3438C17.6188 12.3 17.6188 10.6125 18.6626 9.56877C19.7063 8.52502 21.3938 8.52502 22.4376 9.56877C23.4813 10.6125 23.4813 12.3 22.4376 13.3438C21.3938 14.3875 19.7063 14.3875 18.6626 13.3438Z" fill="black"/>
<path d="M10.9064 23.7812C10.6439 24.0437 10.1752 24.1937 9.66892 24.2812C8.53142 24.475 7.53767 23.4812 7.73142 22.3437C7.81892 21.8375 7.96267 21.3687 8.22517 21.1125L8.23142 21.1062C8.37517 20.9625 8.25642 20.725 8.05642 20.75C7.44392 20.825 6.84392 21.1 6.37517 21.5687C5.25017 22.6937 5.14392 26.8688 5.14392 26.8688C5.14392 26.8688 9.32517 26.7625 10.4502 25.6375C10.9252 25.1625 11.1939 24.5687 11.2689 23.9562C11.2877 23.7562 11.0439 23.6375 10.9064 23.7812Z" fill="black"/>
</svg>