<svg width="160" height="220" viewBox="0 0 1250 1794" fill="none" xmlns="http://www.w3.org/2000/svg" class="jsx-2180138831"><rect width="1250" height="1794" rx="73" fill="white" class="jsx-2180138831"></rect><rect width="1250" height="1794" rx="73" fill="url(#ipad-gradient-1)" fill-opacity="0.06" class="jsx-2180138831"></rect><rect x="7.5" y="7.5" width="1235" height="1779" rx="66.5" fill="#FCFCFC" stroke="#F6F6F6" class="jsx-2180138831"></rect><mask id="ipad-mask-1" masktype="alpha" maskUnits="userSpaceOnUse" x="48" y="129" width="1154" height="1536" class="jsx-2180138831"><mask id="ipad-mask-2" masktype="luminance" fill="white" class="jsx-2180138831"><rect x="48" y="129" width="1154" height="1536" rx="3" class="jsx-2180138831"></rect></mask><rect x="48" y="129" width="1154" height="1536" rx="3" fill="white" stroke="white" stroke-width="8" mask="url(#ipad-mask-2)" class="jsx-2180138831"></rect></mask><g mask="url(#ipad-mask-1)" class="jsx-2180138831"><rect x="274" y="210" width="928" height="1455" fill="#F6F6F6" class="jsx-2180138831"></rect><rect x="49" y="132" width="225" height="1533" fill="white" class="jsx-2180138831"></rect><rect x="49" y="132" width="1153" height="78.1695" fill="#007AFF" class="jsx-2180138831"></rect><rect x="313.822" y="250.254" width="254.494" height="310.678" rx="6" fill="white" stroke="#CBCBCB" stroke-width="2" class="jsx-2180138831"></rect><path d="M315.466 256.045C315.466 253.836 317.257 252.045 319.466 252.045H562.671C564.881 252.045 566.671 253.836 566.671 256.045V461.428H315.466V256.045Z" fill="#EAEAEA" class="jsx-2180138831"></path><rect x="336.62" y="486.554" width="153.367" height="19.5424" rx="3" fill="#CFCFCF" class="jsx-2180138831"></rect><rect x="336.62" y="517.263" width="89.905" height="19.5424" rx="3" fill="#CFCFCF" class="jsx-2180138831"></rect><rect x="609.4" y="250.254" width="254.494" height="310.678" rx="6" fill="white" stroke="#CBCBCB" stroke-width="2" class="jsx-2180138831"></rect><path d="M611.045 256.045C611.045 253.836 612.836 252.045 615.045 252.045H858.25C860.459 252.045 862.25 253.836 862.25 256.045V461.428H611.045V256.045Z" fill="#EAEAEA" class="jsx-2180138831"></path><rect x="632.198" y="486.554" width="153.367" height="19.5424" rx="3" fill="#CFCFCF" class="jsx-2180138831"></rect><rect x="632.198" y="517.263" width="89.905" height="19.5424" rx="3" fill="#CFCFCF" class="jsx-2180138831"></rect><rect x="904.979" y="250.254" width="254.494" height="310.678" rx="6" fill="white" stroke="#CBCBCB" stroke-width="2" class="jsx-2180138831"></rect><path d="M906.623 256.045C906.623 253.836 908.414 252.045 910.623 252.045H1153.83C1156.04 252.045 1157.83 253.836 1157.83 256.045V461.428H906.623V256.045Z" fill="#EAEAEA" class="jsx-2180138831"></path><rect x="927.777" y="486.554" width="153.367" height="19.5424" rx="3" fill="#CFCFCF" class="jsx-2180138831"></rect><rect x="927.777" y="517.263" width="89.905" height="19.5424" rx="3" fill="#CFCFCF" class="jsx-2180138831"></rect><rect x="313.822" y="602.017" width="254.494" height="310.678" rx="6" fill="white" stroke="#CBCBCB" stroke-width="2" class="jsx-2180138831"></rect><path d="M315.466 607.808C315.466 605.599 317.257 603.808 319.466 603.808H562.671C564.881 603.808 566.671 605.599 566.671 607.808V813.191H315.466V607.808Z" fill="#EAEAEA" class="jsx-2180138831"></path><rect x="336.62" y="838.316" width="153.367" height="19.5424" rx="3" fill="#CFCFCF" class="jsx-2180138831"></rect><rect x="336.62" y="869.026" width="89.905" height="19.5424" rx="3" fill="#CFCFCF" class="jsx-2180138831"></rect><rect x="609.4" y="602.017" width="254.494" height="310.678" rx="6" fill="white" stroke="#CBCBCB" stroke-width="2" class="jsx-2180138831"></rect><path d="M611.045 607.808C611.045 605.599 612.836 603.808 615.045 603.808H858.25C860.459 603.808 862.25 605.599 862.25 607.808V813.191H611.045V607.808Z" fill="#EAEAEA" class="jsx-2180138831"></path><rect x="632.198" y="838.316" width="153.367" height="19.5424" rx="3" fill="#CFCFCF" class="jsx-2180138831"></rect><rect x="632.198" y="869.026" width="89.905" height="19.5424" rx="3" fill="#CFCFCF" class="jsx-2180138831"></rect><rect x="904.979" y="602.017" width="254.494" height="310.678" rx="6" fill="white" stroke="#CBCBCB" stroke-width="2" class="jsx-2180138831"></rect><path d="M906.623 607.808C906.623 605.599 908.414 603.808 910.623 603.808H1153.83C1156.04 603.808 1157.83 605.599 1157.83 607.808V813.191H906.623V607.808Z" fill="#EAEAEA" class="jsx-2180138831"></path><rect x="927.777" y="838.316" width="153.367" height="19.5424" rx="3" fill="#CFCFCF" class="jsx-2180138831"></rect><rect x="927.777" y="869.026" width="89.905" height="19.5424" rx="3" fill="#CFCFCF" class="jsx-2180138831"></rect><rect x="313.822" y="954.254" width="254.494" height="310.678" rx="6" fill="white" stroke="#CBCBCB" stroke-width="2" class="jsx-2180138831"></rect><path d="M315.466 960.045C315.466 957.836 317.257 956.045 319.466 956.045H562.671C564.881 956.045 566.671 957.836 566.671 960.045V1165.43H315.466V960.045Z" fill="#EAEAEA" class="jsx-2180138831"></path><rect x="336.62" y="1190.55" width="153.367" height="19.5424" rx="3" fill="#CFCFCF" class="jsx-2180138831"></rect><rect x="336.62" y="1221.26" width="89.905" height="19.5424" rx="3" fill="#CFCFCF" class="jsx-2180138831"></rect><rect x="609.4" y="954.254" width="254.494" height="310.678" rx="6" fill="white" stroke="#CBCBCB" stroke-width="2" class="jsx-2180138831"></rect><path d="M611.045 960.045C611.045 957.836 612.836 956.045 615.045 956.045H858.25C860.459 956.045 862.25 957.836 862.25 960.045V1165.43H611.045V960.045Z" fill="#EAEAEA" class="jsx-2180138831"></path><rect x="632.198" y="1190.55" width="153.367" height="19.5424" rx="3" fill="#CFCFCF" class="jsx-2180138831"></rect><rect x="632.198" y="1221.26" width="89.905" height="19.5424" rx="3" fill="#CFCFCF" class="jsx-2180138831"></rect><rect x="904.979" y="954.254" width="254.494" height="310.678" rx="6" fill="white" stroke="#CBCBCB" stroke-width="2" class="jsx-2180138831"></rect><path d="M906.623 960.045C906.623 957.836 908.414 956.045 910.623 956.045H1153.83C1156.04 956.045 1157.83 957.836 1157.83 960.045V1165.43H906.623V960.045Z" fill="#EAEAEA" class="jsx-2180138831"></path><rect x="927.777" y="1190.55" width="153.367" height="19.5424" rx="3" fill="#CFCFCF" class="jsx-2180138831"></rect><rect x="927.777" y="1221.26" width="89.905" height="19.5424" rx="3" fill="#CFCFCF" class="jsx-2180138831"></rect><rect x="313.822" y="1306.02" width="254.494" height="310.678" rx="6" fill="white" stroke="#CBCBCB" stroke-width="2" class="jsx-2180138831"></rect><path d="M315.466 1311.81C315.466 1309.6 317.257 1307.81 319.466 1307.81H562.671C564.881 1307.81 566.671 1309.6 566.671 1311.81V1517.19H315.466V1311.81Z" fill="#EAEAEA" class="jsx-2180138831"></path><rect x="336.62" y="1542.32" width="153.367" height="19.5424" rx="3" fill="#CFCFCF" class="jsx-2180138831"></rect><rect x="336.62" y="1573.03" width="89.905" height="19.5424" rx="3" fill="#CFCFCF" class="jsx-2180138831"></rect><rect x="609.4" y="1306.02" width="254.494" height="310.678" rx="6" fill="white" stroke="#CBCBCB" stroke-width="2" class="jsx-2180138831"></rect><path d="M611.045 1311.81C611.045 1309.6 612.836 1307.81 615.045 1307.81H858.25C860.459 1307.81 862.25 1309.6 862.25 1311.81V1517.19H611.045V1311.81Z" fill="#EAEAEA" class="jsx-2180138831"></path><rect x="632.198" y="1542.32" width="153.367" height="19.5424" rx="3" fill="#CFCFCF" class="jsx-2180138831"></rect><rect x="632.198" y="1573.03" width="89.905" height="19.5424" rx="3" fill="#CFCFCF" class="jsx-2180138831"></rect><rect x="904.979" y="1306.02" width="254.494" height="310.678" rx="6" fill="white" stroke="#CBCBCB" stroke-width="2" class="jsx-2180138831"></rect><path d="M906.623 1311.81C906.623 1309.6 908.414 1307.81 910.623 1307.81H1153.83C1156.04 1307.81 1157.83 1309.6 1157.83 1311.81V1517.19H906.623V1311.81Z" fill="#EAEAEA" class="jsx-2180138831"></path><rect x="927.777" y="1542.32" width="153.367" height="19.5424" rx="3" fill="#CFCFCF" class="jsx-2180138831"></rect><rect x="927.777" y="1573.03" width="89.905" height="19.5424" rx="3" fill="#CFCFCF" class="jsx-2180138831"></rect><rect x="78.3135" y="151.542" width="146.568" height="39.0847" rx="4" fill="#EAEAEA" class="jsx-2180138831"></rect><rect x="78.3135" y="278.568" width="166.11" height="24.428" rx="3" fill="#CFCFCF" class="jsx-2180138831"></rect><rect x="78.3135" y="244.369" width="68.3983" height="14.6568" rx="3" fill="#EAEAEA" class="jsx-2180138831"></rect><rect x="78.3135" y="537.504" width="68.3983" height="14.6568" rx="3" fill="#EAEAEA" class="jsx-2180138831"></rect><rect x="78.3135" y="322.538" width="166.11" height="24.428" rx="3" fill="#CFCFCF" class="jsx-2180138831"></rect><rect x="78.3135" y="366.508" width="166.11" height="24.428" rx="3" fill="#CFCFCF" class="jsx-2180138831"></rect><rect x="78.3135" y="410.479" width="166.11" height="24.428" rx="3" fill="#CFCFCF" class="jsx-2180138831"></rect><rect x="78.3135" y="454.449" width="166.11" height="24.428" rx="3" fill="#CFCFCF" class="jsx-2180138831"></rect><rect x="78.3135" y="571.703" width="166.11" height="63.5127" rx="3" fill="#CFCFCF" class="jsx-2180138831"></rect><rect x="78.3135" y="693.843" width="68.3983" height="14.6568" rx="3" fill="#EAEAEA" class="jsx-2180138831"></rect><rect x="78.3135" y="728.042" width="166.11" height="85.4979" rx="3" fill="#CFCFCF" class="jsx-2180138831"></rect><circle cx="1158.03" cy="171.085" r="19.5424" fill="#EAEAEA" class="jsx-2180138831"></circle><mask id="ipad-mask-3" fill="white" class="jsx-2180138831"><rect x="48" y="129" width="1154" height="1536" rx="3" class="jsx-2180138831"></rect></mask><rect x="48" y="129" width="1154" height="1536" rx="3" stroke="#F5F5F5" stroke-width="8" mask="url(#ipad-mask-3)" class="jsx-2180138831"></rect></g><g opacity="0.5" class="jsx-2180138831"><g filter="url(#ipad-filter-1)" class="jsx-2180138831"><path fill-rule="evenodd" clip-rule="evenodd" d="M625 1767C645.987 1767 663 1749.99 663 1729C663 1708.01 645.987 1691 625 1691C604.013 1691 587 1708.01 587 1729C587 1749.99 604.013 1767 625 1767Z" fill="white" class="jsx-2180138831"></path></g><path d="M661 1729C661 1748.88 644.882 1765 625 1765C605.118 1765 589 1748.88 589 1729C589 1709.12 605.118 1693 625 1693C644.882 1693 661 1709.12 661 1729Z" stroke="url(#ipad-gradient-2)" stroke-opacity="0.297086" stroke-width="4" class="jsx-2180138831"></path></g><g filter="url(#ipad-filter-2)" class="jsx-2180138831"><path fill-rule="evenodd" clip-rule="evenodd" d="M625 79C630.523 79 635 74.5228 635 69C635 63.4772 630.523 59 625 59C619.477 59 615 63.4772 615 69C615 74.5228 619.477 79 625 79Z" fill="#F5F5F5" class="jsx-2180138831"></path></g><path fill-rule="evenodd" clip-rule="evenodd" d="M625 74C627.761 74 630 71.7614 630 69C630 66.2386 627.761 64 625 64C622.239 64 620 66.2386 620 69C620 71.7614 622.239 74 625 74Z" fill="white" class="jsx-2180138831"></path><defs class="jsx-2180138831"><filter id="ipad-filter-1" x="587" y="1691" width="76" height="88" filterUnits="userSpaceOnUse" color-interpolation-filters="sRGB" class="jsx-2180138831"><feFlood flood-opacity="0" result="BackgroundImageFix" class="jsx-2180138831"></feFlood><feBlend mode="normal" in="SourceGraphic" in2="BackgroundImageFix" result="shape" class="jsx-2180138831"></feBlend><feColorMatrix in="SourceAlpha" type="matrix" values="0 0 0 0 0 0 0 0 0 0 0 0 0 0 0 0 0 0 127 0" result="hardAlpha" class="jsx-2180138831"></feColorMatrix><feOffset dy="12" class="jsx-2180138831"></feOffset><feGaussianBlur stdDeviation="6.5" class="jsx-2180138831"></feGaussianBlur><feComposite in2="hardAlpha" operator="arithmetic" k2="-1" k3="1" class="jsx-2180138831"></feComposite><feColorMatrix type="matrix" values="0 0 0 0 0 0 0 0 0 0 0 0 0 0 0 0 0 0 0.068699 0" class="jsx-2180138831"></feColorMatrix><feBlend mode="normal" in2="shape" result="effect1_innerShadow" class="jsx-2180138831"></feBlend></filter><filter id="ipad-filter-2" x="615" y="59" width="20" height="21" filterUnits="userSpaceOnUse" color-interpolation-filters="sRGB" class="jsx-2180138831"><feFlood flood-opacity="0" result="BackgroundImageFix" class="jsx-2180138831"></feFlood><feBlend mode="normal" in="SourceGraphic" in2="BackgroundImageFix" result="shape" class="jsx-2180138831"></feBlend><feColorMatrix in="SourceAlpha" type="matrix" values="0 0 0 0 0 0 0 0 0 0 0 0 0 0 0 0 0 0 127 0" result="hardAlpha" class="jsx-2180138831"></feColorMatrix><feOffset dy="1" class="jsx-2180138831"></feOffset><feGaussianBlur stdDeviation="1.5" class="jsx-2180138831"></feGaussianBlur><feComposite in2="hardAlpha" operator="arithmetic" k2="-1" k3="1" class="jsx-2180138831"></feComposite><feColorMatrix type="matrix" values="0 0 0 0 0 0 0 0 0 0 0 0 0 0 0 0 0 0 0.0526778 0" class="jsx-2180138831"></feColorMatrix><feBlend mode="normal" in2="shape" result="effect1_innerShadow" class="jsx-2180138831"></feBlend></filter><linearGradient id="ipad-gradient-1" x1="0" y1="0" x2="0" y2="1794" gradientUnits="userSpaceOnUse" class="jsx-2180138831"><stop stop-opacity="0.01" class="jsx-2180138831"></stop><stop offset="1" stop-opacity="0.626076" class="jsx-2180138831"></stop></linearGradient><linearGradient id="ipad-gradient-2" x1="667.489" y1="1785.93" x2="667.489" y2="1700.95" gradientUnits="userSpaceOnUse" class="jsx-2180138831"><stop stop-color="white" stop-opacity="0.348958" class="jsx-2180138831"></stop><stop offset="1" stop-opacity="0.347543" class="jsx-2180138831"></stop></linearGradient></defs></svg>