<svg width="27" height="26" viewBox="0 0 27 26" fill="none" xmlns="http://www.w3.org/2000/svg">
  <path d="M25.5688 5.19375L22.7626 8.0125C22.7063 8.06875 22.6188 8.09375 22.5438 8.08125L19.6438 7.55625C19.5438 7.5375 19.4626 7.45625 19.4438 7.35625L18.9251 4.45625C18.9126 4.375 18.9376 4.29375 18.9938 4.2375L21.7938 1.425C22.0126 1.20625 21.9813 0.84375 21.7313 0.66875C21.1001 0.21875 20.3501 0 19.7438 0C19.7001 0 19.6563 -9.54606e-08 19.6188 0.0062499C18.8376 0.0499999 17.1626 0.4875 15.8688 1.8625C14.6126 3.1875 13.3001 5.65 14.4626 8.39375C14.6001 8.725 14.7563 9.1625 14.2938 9.625C13.8188 10.0875 1.8126 21.3937 1.8126 21.3937C0.687597 22.3625 0.768847 24.1562 1.80635 25.2C2.3376 25.725 3.05635 26 3.7626 26C4.45635 26 5.13135 25.7375 5.6126 25.1812C5.6126 25.1812 16.8251 13.2375 17.3751 12.6938C17.6251 12.45 17.8563 12.375 18.0688 12.375C18.2751 12.375 18.4626 12.45 18.6063 12.525C19.2251 12.8438 19.9188 12.9875 20.6313 12.9875C22.3063 12.9875 24.0688 12.2125 25.1438 11.1375C26.6688 9.6125 26.9501 8.1375 26.9938 7.38125C27.0313 6.7625 26.8563 5.96875 26.3251 5.24375C26.1438 5.00625 25.7876 4.98125 25.5688 5.19375ZM4.40635 23.8312C4.0626 24.1687 3.50635 24.1687 3.1626 23.8312C2.8251 23.4875 2.8251 22.9312 3.1626 22.5875C3.50635 22.25 4.0626 22.25 4.40635 22.5875C4.74385 22.9375 4.74385 23.4937 4.40635 23.8312Z" fill="black"/>
</svg>