<svg fill="none" height="432" viewBox="0 0 432 432" width="432" xmlns="http://www.w3.org/2000/svg" xmlns:xlink="http://www.w3.org/1999/xlink"><filter id="a" color-interpolation-filters="sRGB" filterUnits="userSpaceOnUse" height="122" width="122" x="155" y="156"><feFlood flood-opacity="0" result="BackgroundImageFix"/><feColorMatrix in="SourceAlpha" type="matrix" values="0 0 0 0 0 0 0 0 0 0 0 0 0 0 0 0 0 0 127 0"/><feOffset dy="1"/><feGaussianBlur stdDeviation="2.5"/><feColorMatrix type="matrix" values="0 0 0 0 0 0 0 0 0 0 0 0 0 0 0 0 0 0 0.24 0"/><feBlend in2="BackgroundImageFix" mode="normal" result="effect1_dropShadow"/><feBlend in="SourceGraphic" in2="effect1_dropShadow" mode="normal" result="shape"/></filter><g stroke="#fff" stroke-dasharray="3 3"><circle cx="216" cy="216" r="95.5"/><circle cx="216" cy="216" opacity=".6" r="135.5"/><circle cx="216" cy="216" opacity=".5" r="175.5"/><circle cx="216" cy="216" opacity=".3" r="215.5"/></g><g filter="url(#a)"><circle cx="216" cy="216" fill="#fff" r="56"/></g><path d="m200.611 208.432h12.478v.994h-11.334v7.481h10.658v.994h-10.658v8.213h11.464v.994h-12.608zm13.596 0h1.326l5.875 8.214 6.005-8.214 8.168-10.432-13.419 19.509 6.915 9.599h-1.378l-6.291-8.736-6.317 8.736h-1.352l6.967-9.599zm15.364.994v-.994h14.219v.994h-6.55v17.682h-1.145v-17.682zm-44.571-.994h1.43l19.716 29.568-8.148-10.892-11.802-17.263-.052 17.263h-1.144zm58.676 17.382c-.235 0-.41-.181-.41-.415 0-.235.175-.417.409-.417.237 0 .409.182.409.417 0 .234-.172.415-.409.415zm1.123-1.094h.612c.009.332.251.555.607.555.398 0 .623-.239.623-.689v-2.847h.623v2.85c0 .81-.467 1.276-1.241 1.276-.725 0-1.223-.453-1.223-1.145zm3.28-.036h.618c.053.382.425.625.963.625.5 0 .867-.26.867-.617 0-.307-.233-.491-.765-.617l-.517-.125c-.726-.17-1.057-.523-1.057-1.114 0-.718.584-1.196 1.46-1.196.815 0 1.411.478 1.447 1.156h-.607c-.058-.371-.38-.603-.848-.603-.493 0-.821.238-.821.601 0 .287.212.452.735.575l.442.109c.823.192 1.163.527 1.163 1.133 0 .77-.596 1.254-1.547 1.254-.89 0-1.488-.461-1.533-1.181z" fill="#000"/></svg>